<svg xmlns="http://www.w3.org/2000/svg" viewBox="0 0 64 64">
  <defs>
    <linearGradient id="crust" x1="0" y1="0" x2="0" y2="1">
      <stop offset="0" stop-color="#E8AC5E"/>
      <stop offset="1" stop-color="#C97F33"/>
    </linearGradient>
  </defs>
  <path fill="url(#crust)" stroke="#9B5E22" stroke-width="2.2" stroke-linejoin="round"
        d="M7 41 C 7 24 20 15 32 15 C 44 15 57 24 57 41 C 57 45 53 47 49 47 L 15 47 C 11 47 7 45 7 41 Z"/>
  <path fill="#F4E3C2" stroke="#9B5E22" stroke-width="2" stroke-linejoin="round"
        d="M11 44 C 11 46.4 13 47.6 15 47.6 L 49 47.6 C 51 47.6 53 46.4 53 44 C 53 47.6 50.5 50.5 46 50.5 L 18 50.5 C 13.5 50.5 11 47.6 11 44 Z"/>
  <g stroke="#9B5E22" stroke-width="2.2" stroke-linecap="round" fill="none" opacity="0.85">
    <path d="M22 22 l-4.5 8.5"/>
    <path d="M32 20 l-4.5 9.5"/>
    <path d="M42 22 l-4.5 8.5"/>
  </g>
</svg>
